<svg xmlns="http://www.w3.org/2000/svg" xmlns:xlink="http://www.w3.org/1999/xlink" contentStyleType="text/css" data-diagram-type="CLASS" height="771px" preserveAspectRatio="none" style="width:652px;height:771px;background:#777777;" version="1.1" viewBox="0 0 652 771" width="652px" zoomAndPan="magnify"><defs/><g><rect fill="#777777" height="771" style="stroke:#FFFFFF00;stroke-width:1;" width="652" x="0" y="0"/><!--class Usuario--><g id="elem_Usuario"><rect codeLine="2" fill="#2E2E2E" height="182.8516" id="Usuario" rx="2.5" ry="2.5" style="stroke:#1B1B1B;stroke-width:0.5;" width="274.6035" x="130.01" y="428.68"/><ellipse cx="242.9101" cy="441.68" fill="#A9DCDF" rx="8" ry="8" style="stroke:#181818;stroke-width:1;"/><path d="M244.7851,443.4613 L241.5508,443.4613 L241.0351,444.93 L238.957,444.93 L241.9414,436.9144 L244.3945,436.9144 L247.3633,444.93 L245.2851,444.93 L244.7851,443.4613 Z M242.0664,441.9769 L244.2695,441.9769 L243.1758,438.7894 L242.0664,441.9769 Z " fill="#000000"/><text fill="#AAAAAA" font-family="Verdana" font-size="11" font-style="italic" lengthAdjust="spacing" textLength="41.8032" x="258.9101" y="445.4881">Usuario</text><line style="stroke:#1B1B1B;stroke-width:0.5;" x1="131.01" x2="403.6135" y1="454.68" y2="454.68"/><rect fill="#FFFFFF" fill-opacity="0.00000" height="6" style="stroke:#C82930;stroke-width:1;" width="6" x="138.01" y="463.0823"/><text fill="#AAAAAA" font-family="sans-serif" font-size="11" lengthAdjust="spacing" textLength="71.2153" x="147.01" y="468.8904">nome: String</text><rect fill="#FFFFFF" fill-opacity="0.00000" height="6" style="stroke:#C82930;stroke-width:1;" width="6" x="138.01" y="475.887"/><text fill="#AAAAAA" font-family="sans-serif" font-size="11" lengthAdjust="spacing" textLength="70.3667" x="147.01" y="481.6951">email: String</text><rect fill="#FFFFFF" fill-opacity="0.00000" height="6" style="stroke:#C82930;stroke-width:1;" width="6" x="138.01" y="488.6917"/><text fill="#AAAAAA" font-family="sans-serif" font-size="11" lengthAdjust="spacing" textLength="73.2134" x="147.01" y="494.4998">senha: String</text><rect fill="#FFFFFF" fill-opacity="0.00000" height="6" style="stroke:#C82930;stroke-width:1;" width="6" x="138.01" y="501.4964"/><text fill="#AAAAAA" font-family="sans-serif" font-size="11" lengthAdjust="spacing" textLength="86.8345" x="147.01" y="507.3045">TipoUsuario: int</text><rect fill="#FFFFFF" fill-opacity="0.00000" height="6" style="stroke:#C82930;stroke-width:1;" width="6" x="138.01" y="514.3011"/><text fill="#AAAAAA" font-family="sans-serif" font-size="11" lengthAdjust="spacing" textLength="242.6016" x="147.01" y="520.1092">emprestimosRealizados: List&lt;Emprestimo&gt;</text><rect fill="#FFFFFF" fill-opacity="0.00000" height="6" style="stroke:#C82930;stroke-width:1;" width="6" x="138.01" y="527.1058"/><text fill="#AAAAAA" font-family="sans-serif" font-size="11" lengthAdjust="spacing" textLength="109.1245" x="147.01" y="532.9139">bloqueado: boolean</text><line style="stroke:#1B1B1B;stroke-width:0.5;" x1="131.01" x2="403.6135" y1="539.5081" y2="539.5081"/><ellipse cx="141.01" cy="550.9105" fill="#84BE84" rx="3" ry="3" style="stroke:#038048;stroke-width:1;"/><text fill="#AAAAAA" font-family="sans-serif" font-size="11" lengthAdjust="spacing" textLength="159.21" x="147.01" y="553.7186">login(String, String): boolean</text><ellipse cx="141.01" cy="563.7152" fill="#84BE84" rx="3" ry="3" style="stroke:#038048;stroke-width:1;"/><text fill="#AAAAAA" font-family="sans-serif" font-size="11" lengthAdjust="spacing" textLength="73.8472" x="147.01" y="566.5233">logout(): void</text><ellipse cx="141.01" cy="576.5198" fill="#84BE84" rx="3" ry="3" style="stroke:#038048;stroke-width:1;"/><text fill="#AAAAAA" font-family="sans-serif" font-size="11" lengthAdjust="spacing" textLength="152.7002" x="147.01" y="579.3279">verificarBloqueio(): boolean</text><ellipse cx="141.01" cy="589.3245" fill="#84BE84" rx="3" ry="3" style="stroke:#038048;stroke-width:1;"/><text fill="#AAAAAA" font-family="sans-serif" font-size="11" lengthAdjust="spacing" textLength="251.6035" x="147.01" y="592.1326">validacaoEmprestimo(ObraLiteraria): boolean</text><ellipse cx="141.01" cy="602.1292" fill="#84BE84" rx="3" ry="3" style="stroke:#038048;stroke-width:1;"/><text fill="#AAAAAA" font-family="sans-serif" font-size="11" lengthAdjust="spacing" textLength="211.1108" x="147.01" y="604.9373">verificarLimiteEmprestimos(): boolean</text></g><!--class Aluno--><g id="elem_Aluno"><rect codeLine="16" fill="#2E2E2E" height="93.2188" id="Aluno" rx="2.5" ry="2.5" style="stroke:#1B1B1B;stroke-width:0.5;" width="140.6162" x="7" y="671.53"/><ellipse cx="58.1809" cy="684.53" fill="#ADD1B2" rx="8" ry="8" style="stroke:#181818;stroke-width:1;"/><path d="M60.3059,688.0925 Q59.7278,688.3894 59.1028,688.53 Q58.4934,688.6863 57.8215,688.6863 Q55.8215,688.6863 54.6497,687.5769 Q53.4778,686.4519 53.4778,684.53 Q53.4778,682.6081 54.6497,681.4831 Q55.8215,680.3581 57.8215,680.3581 Q58.4934,680.3581 59.1028,680.5144 Q59.7278,680.6706 60.3059,680.9675 L60.3059,682.6238 Q59.7278,682.2331 59.1653,682.0456 Q58.6028,681.8581 57.9934,681.8581 Q56.884,681.8581 56.2434,682.5769 Q55.6184,683.28 55.6184,684.53 Q55.6184,685.7644 56.2434,686.4831 Q56.884,687.1863 57.9934,687.1863 Q58.6028,687.1863 59.1653,687.0144 Q59.7278,686.8269 60.3059,686.4363 L60.3059,688.0925 Z " fill="#000000"/><text fill="#AAAAAA" font-family="Verdana" font-size="11" lengthAdjust="spacing" textLength="31.2544" x="74.1809" y="688.3381">Aluno</text><line style="stroke:#1B1B1B;stroke-width:0.5;" x1="8" x2="146.6162" y1="697.53" y2="697.53"/><rect fill="#FFFFFF" fill-opacity="0.00000" height="6" style="stroke:#C82930;stroke-width:1;" width="6" x="15" y="705.9323"/><text fill="#AAAAAA" font-family="sans-serif" font-size="11" lengthAdjust="spacing" textLength="92.1948" x="24" y="711.7404">matricula: String</text><rect fill="#FFFFFF" fill-opacity="0.00000" height="6" style="stroke:#C82930;stroke-width:1;" width="6" x="15" y="718.737"/><text fill="#AAAAAA" font-family="sans-serif" font-size="11" lengthAdjust="spacing" textLength="70.0337" x="24" y="724.5451">curso: String</text><line style="stroke:#1B1B1B;stroke-width:0.5;" x1="8" x2="146.6162" y1="731.1394" y2="731.1394"/><ellipse cx="18" cy="742.5417" fill="#84BE84" rx="3" ry="3" style="stroke:#038048;stroke-width:1;"/><text fill="#AAAAAA" font-family="sans-serif" font-size="11" lengthAdjust="spacing" textLength="117.6162" x="24" y="745.3498">getMatricula(): String</text><ellipse cx="18" cy="755.3464" fill="#84BE84" rx="3" ry="3" style="stroke:#038048;stroke-width:1;"/><text fill="#AAAAAA" font-family="sans-serif" font-size="11" lengthAdjust="spacing" textLength="98.3125" x="24" y="758.1545">getCurso(): String</text></g><!--class Professor--><g id="elem_Professor"><rect codeLine="23" fill="#2E2E2E" height="67.6094" id="Professor" rx="2.5" ry="2.5" style="stroke:#1B1B1B;stroke-width:0.5;" width="169.7114" x="182.45" y="684.34"/><ellipse cx="238.1856" cy="697.34" fill="#ADD1B2" rx="8" ry="8" style="stroke:#181818;stroke-width:1;"/><path d="M240.3106,700.9025 Q239.7325,701.1994 239.1075,701.34 Q238.4981,701.4963 237.8262,701.4963 Q235.8262,701.4963 234.6543,700.3869 Q233.4825,699.2619 233.4825,697.34 Q233.4825,695.4181 234.6543,694.2931 Q235.8262,693.1681 237.8262,693.1681 Q238.4981,693.1681 239.1075,693.3244 Q239.7325,693.4806 240.3106,693.7775 L240.3106,695.4338 Q239.7325,695.0431 239.17,694.8556 Q238.6075,694.6681 237.9981,694.6681 Q236.8887,694.6681 236.2481,695.3869 Q235.6231,696.09 235.6231,697.34 Q235.6231,698.5744 236.2481,699.2931 Q236.8887,699.9963 237.9981,699.9963 Q238.6075,699.9963 239.17,699.8244 Q239.7325,699.6369 240.3106,699.2463 L240.3106,700.9025 Z " fill="#000000"/><text fill="#AAAAAA" font-family="Verdana" font-size="11" lengthAdjust="spacing" textLength="51.2402" x="254.1856" y="701.1481">Professor</text><line style="stroke:#1B1B1B;stroke-width:0.5;" x1="183.45" x2="351.1614" y1="710.34" y2="710.34"/><rect fill="#FFFFFF" fill-opacity="0.00000" height="6" style="stroke:#C82930;stroke-width:1;" width="6" x="190.45" y="718.7423"/><text fill="#AAAAAA" font-family="sans-serif" font-size="11" lengthAdjust="spacing" textLength="118.5776" x="199.45" y="724.5504">departamento: String</text><line style="stroke:#1B1B1B;stroke-width:0.5;" x1="183.45" x2="351.1614" y1="731.1447" y2="731.1447"/><ellipse cx="193.45" cy="742.547" fill="#84BE84" rx="3" ry="3" style="stroke:#038048;stroke-width:1;"/><text fill="#AAAAAA" font-family="sans-serif" font-size="11" lengthAdjust="spacing" textLength="146.7114" x="199.45" y="745.3551">getDepartamento(): String</text></g><!--class Bibliotecario--><g id="elem_Bibliotecario"><rect codeLine="28" fill="#2E2E2E" height="93.2188" id="Bibliotecario" rx="2.5" ry="2.5" style="stroke:#1B1B1B;stroke-width:0.5;" width="247.9521" x="387.33" y="671.53"/><ellipse cx="473.5036" cy="684.53" fill="#ADD1B2" rx="8" ry="8" style="stroke:#181818;stroke-width:1;"/><path d="M475.6286,688.0925 Q475.0505,688.3894 474.4255,688.53 Q473.8161,688.6863 473.1442,688.6863 Q471.1442,688.6863 469.9723,687.5769 Q468.8005,686.4519 468.8005,684.53 Q468.8005,682.6081 469.9723,681.4831 Q471.1442,680.3581 473.1442,680.3581 Q473.8161,680.3581 474.4255,680.5144 Q475.0505,680.6706 475.6286,680.9675 L475.6286,682.6238 Q475.0505,682.2331 474.488,682.0456 Q473.9255,681.8581 473.3161,681.8581 Q472.2067,681.8581 471.5661,682.5769 Q470.9411,683.28 470.9411,684.53 Q470.9411,685.7644 471.5661,686.4831 Q472.2067,687.1863 473.3161,687.1863 Q473.9255,687.1863 474.488,687.0144 Q475.0505,686.8269 475.6286,686.4363 L475.6286,688.0925 Z " fill="#000000"/><text fill="#AAAAAA" font-family="Verdana" font-size="11" lengthAdjust="spacing" textLength="68.605" x="489.5036" y="688.3381">Bibliotecario</text><line style="stroke:#1B1B1B;stroke-width:0.5;" x1="388.33" x2="634.2821" y1="697.53" y2="697.53"/><rect fill="#FFFFFF" fill-opacity="0.00000" height="6" style="stroke:#C82930;stroke-width:1;" width="6" x="395.33" y="705.9323"/><text fill="#AAAAAA" font-family="sans-serif" font-size="11" lengthAdjust="spacing" textLength="85.2769" x="404.33" y="711.7404">telefone: String</text><rect fill="#FFFFFF" fill-opacity="0.00000" height="6" style="stroke:#C82930;stroke-width:1;" width="6" x="395.33" y="718.737"/><text fill="#AAAAAA" font-family="sans-serif" font-size="11" lengthAdjust="spacing" textLength="143.0698" x="404.33" y="724.5451">devolucoesRealizadas: int</text><line style="stroke:#1B1B1B;stroke-width:0.5;" x1="388.33" x2="634.2821" y1="731.1394" y2="731.1394"/><ellipse cx="398.33" cy="742.5417" fill="#84BE84" rx="3" ry="3" style="stroke:#038048;stroke-width:1;"/><text fill="#AAAAAA" font-family="sans-serif" font-size="11" lengthAdjust="spacing" textLength="114.3291" x="404.33" y="745.3498">getTelefone(): String</text><ellipse cx="398.33" cy="755.3464" fill="#84BE84" rx="3" ry="3" style="stroke:#038048;stroke-width:1;"/><text fill="#AAAAAA" font-family="sans-serif" font-size="11" lengthAdjust="spacing" textLength="224.9521" x="404.33" y="758.1545">incrementaDevolucoesRealizadas(): void</text></g><!--class ObraLiteraria--><g id="elem_ObraLiteraria"><rect codeLine="35" fill="#2E2E2E" height="131.6328" id="ObraLiteraria" rx="2.5" ry="2.5" style="stroke:#1B1B1B;stroke-width:0.5;" width="190.7715" x="454.92" y="454.29"/><ellipse cx="510.43" cy="467.29" fill="#ADD1B2" rx="8" ry="8" style="stroke:#181818;stroke-width:1;"/><path d="M512.555,470.8525 Q511.9769,471.1494 511.3519,471.29 Q510.7425,471.4463 510.0706,471.4463 Q508.0706,471.4463 506.8988,470.3369 Q505.7269,469.2119 505.7269,467.29 Q505.7269,465.3681 506.8988,464.2431 Q508.0706,463.1181 510.0706,463.1181 Q510.7425,463.1181 511.3519,463.2744 Q511.9769,463.4306 512.555,463.7275 L512.555,465.3838 Q511.9769,464.9931 511.4144,464.8056 Q510.8519,464.6181 510.2425,464.6181 Q509.1331,464.6181 508.4925,465.3369 Q507.8675,466.04 507.8675,467.29 Q507.8675,468.5244 508.4925,469.2431 Q509.1331,469.9463 510.2425,469.9463 Q510.8519,469.9463 511.4144,469.7744 Q511.9769,469.5869 512.555,469.1963 L512.555,470.8525 Z " fill="#000000"/><text fill="#AAAAAA" font-family="Verdana" font-size="11" lengthAdjust="spacing" textLength="72.7515" x="526.43" y="471.0981">ObraLiteraria</text><line style="stroke:#1B1B1B;stroke-width:0.5;" x1="455.92" x2="644.6915" y1="480.29" y2="480.29"/><rect fill="#FFFFFF" fill-opacity="0.00000" height="6" style="stroke:#C82930;stroke-width:1;" width="6" x="462.92" y="488.6923"/><text fill="#AAAAAA" font-family="sans-serif" font-size="11" lengthAdjust="spacing" textLength="31.582" x="471.92" y="494.5004">id: int</text><rect fill="#FFFFFF" fill-opacity="0.00000" height="6" style="stroke:#C82930;stroke-width:1;" width="6" x="462.92" y="501.497"/><text fill="#AAAAAA" font-family="sans-serif" font-size="11" lengthAdjust="spacing" textLength="68.4707" x="471.92" y="507.3051">titulo: String</text><rect fill="#FFFFFF" fill-opacity="0.00000" height="6" style="stroke:#C82930;stroke-width:1;" width="6" x="462.92" y="514.3017"/><text fill="#AAAAAA" font-family="sans-serif" font-size="11" lengthAdjust="spacing" textLength="69.3086" x="471.92" y="520.1098">autor: String</text><rect fill="#FFFFFF" fill-opacity="0.00000" height="6" style="stroke:#C82930;stroke-width:1;" width="6" x="462.92" y="527.1064"/><text fill="#AAAAAA" font-family="sans-serif" font-size="11" lengthAdjust="spacing" textLength="141.3833" x="471.92" y="532.9145">quantidadeDisponivel: int</text><rect fill="#FFFFFF" fill-opacity="0.00000" height="6" style="stroke:#C82930;stroke-width:1;" width="6" x="462.92" y="539.9111"/><text fill="#AAAAAA" font-family="sans-serif" font-size="11" lengthAdjust="spacing" textLength="111.6113" x="471.92" y="545.7192">quantidadeTotal: int</text><line style="stroke:#1B1B1B;stroke-width:0.5;" x1="455.92" x2="644.6915" y1="552.3134" y2="552.3134"/><ellipse cx="465.92" cy="563.7158" fill="#84BE84" rx="3" ry="3" style="stroke:#038048;stroke-width:1;"/><text fill="#AAAAAA" font-family="sans-serif" font-size="11" lengthAdjust="spacing" textLength="167.7715" x="471.92" y="566.5239">consultarInformacoes(): String</text><ellipse cx="465.92" cy="576.5205" fill="#84BE84" rx="3" ry="3" style="stroke:#038048;stroke-width:1;"/><text fill="#AAAAAA" font-family="sans-serif" font-size="11" lengthAdjust="spacing" textLength="165.5049" x="471.92" y="579.3286">atualizarQuantidade(int): void</text></g><!--class Emprestimo--><g id="elem_Emprestimo"><rect codeLine="45" fill="#2E2E2E" height="170.0469" id="Emprestimo" rx="2.5" ry="2.5" style="stroke:#1B1B1B;stroke-width:0.5;" width="221.4995" x="290.56" y="198.63"/><ellipse cx="364.5681" cy="211.63" fill="#ADD1B2" rx="8" ry="8" style="stroke:#181818;stroke-width:1;"/><path d="M366.6931,215.1925 Q366.1149,215.4894 365.4899,215.63 Q364.8806,215.7863 364.2087,215.7863 Q362.2087,215.7863 361.0368,214.6769 Q359.8649,213.5519 359.8649,211.63 Q359.8649,209.7081 361.0368,208.5831 Q362.2087,207.4581 364.2087,207.4581 Q364.8806,207.4581 365.4899,207.6144 Q366.1149,207.7706 366.6931,208.0675 L366.6931,209.7238 Q366.1149,209.3331 365.5524,209.1456 Q364.9899,208.9581 364.3806,208.9581 Q363.2712,208.9581 362.6306,209.6769 Q362.0056,210.38 362.0056,211.63 Q362.0056,212.8644 362.6306,213.5831 Q363.2712,214.2863 364.3806,214.2863 Q364.9899,214.2863 365.5524,214.1144 Q366.1149,213.9269 366.6931,213.5363 L366.6931,215.1925 Z " fill="#000000"/><text fill="#AAAAAA" font-family="Verdana" font-size="11" lengthAdjust="spacing" textLength="66.4834" x="380.5681" y="215.4381">Emprestimo</text><line style="stroke:#1B1B1B;stroke-width:0.5;" x1="291.56" x2="511.0595" y1="224.63" y2="224.63"/><rect fill="#FFFFFF" fill-opacity="0.00000" height="6" style="stroke:#C82930;stroke-width:1;" width="6" x="298.56" y="233.0323"/><text fill="#AAAAAA" font-family="sans-serif" font-size="11" lengthAdjust="spacing" textLength="89.7295" x="307.56" y="238.8404">usuario: Usuario</text><rect fill="#FFFFFF" fill-opacity="0.00000" height="6" style="stroke:#C82930;stroke-width:1;" width="6" x="298.56" y="245.837"/><text fill="#AAAAAA" font-family="sans-serif" font-size="11" lengthAdjust="spacing" textLength="104.9297" x="307.56" y="251.6451">obra: ObraLiteraria</text><rect fill="#FFFFFF" fill-opacity="0.00000" height="6" style="stroke:#C82930;stroke-width:1;" width="6" x="298.56" y="258.6417"/><text fill="#AAAAAA" font-family="sans-serif" font-size="11" lengthAdjust="spacing" textLength="153.4575" x="307.56" y="264.4498">dataEmprestimo: LocalDate</text><rect fill="#FFFFFF" fill-opacity="0.00000" height="6" style="stroke:#C82930;stroke-width:1;" width="6" x="298.56" y="271.4464"/><text fill="#AAAAAA" font-family="sans-serif" font-size="11" lengthAdjust="spacing" textLength="189.272" x="307.56" y="277.2545">dataDevolucaoPrevista: LocalDate</text><rect fill="#FFFFFF" fill-opacity="0.00000" height="6" style="stroke:#C82930;stroke-width:1;" width="6" x="298.56" y="284.2511"/><text fill="#AAAAAA" font-family="sans-serif" font-size="11" lengthAdjust="spacing" textLength="198.4995" x="307.56" y="290.0592">dataDevolucaoRealizada: LocalDate</text><rect fill="#FFFFFF" fill-opacity="0.00000" height="6" style="stroke:#C82930;stroke-width:1;" width="6" x="298.56" y="297.0558"/><text fill="#AAAAAA" font-family="sans-serif" font-size="11" lengthAdjust="spacing" textLength="145.6157" x="307.56" y="302.8639">emprestimoAtivo: boolean</text><rect fill="#FFFFFF" fill-opacity="0.00000" height="6" style="stroke:#C82930;stroke-width:1;" width="6" x="298.56" y="309.8605"/><text fill="#AAAAAA" font-family="sans-serif" font-size="11" lengthAdjust="spacing" textLength="99.6821" x="307.56" y="315.6686">atrasado: boolean</text><line style="stroke:#1B1B1B;stroke-width:0.5;" x1="291.56" x2="511.0595" y1="322.2628" y2="322.2628"/><ellipse cx="301.56" cy="333.6652" fill="#84BE84" rx="3" ry="3" style="stroke:#038048;stroke-width:1;"/><text fill="#AAAAAA" font-family="sans-serif" font-size="11" lengthAdjust="spacing" textLength="140.4219" x="307.56" y="336.4733">verificarAtraso(): boolean</text><ellipse cx="301.56" cy="346.4698" fill="#84BE84" rx="3" ry="3" style="stroke:#038048;stroke-width:1;"/><text fill="#AAAAAA" font-family="sans-serif" font-size="11" lengthAdjust="spacing" textLength="133.5039" x="307.56" y="349.2779">getObra(): ObraLiteraria</text><ellipse cx="301.56" cy="359.2745" fill="#84BE84" rx="3" ry="3" style="stroke:#038048;stroke-width:1;"/><text fill="#AAAAAA" font-family="sans-serif" font-size="11" lengthAdjust="spacing" textLength="117.4551" x="307.56" y="362.0826">getUsuario(): Usuario</text></g><!--class Biblioteca--><g id="elem_Biblioteca"><rect codeLine="58" fill="#2E2E2E" height="131.6328" id="Biblioteca" rx="2.5" ry="2.5" style="stroke:#1B1B1B;stroke-width:0.5;" width="291.2754" x="255.67" y="7"/><ellipse cx="370.6595" cy="20" fill="#ADD1B2" rx="8" ry="8" style="stroke:#181818;stroke-width:1;"/><path d="M372.7845,23.5625 Q372.2064,23.8594 371.5814,24 Q370.972,24.1563 370.3001,24.1563 Q368.3001,24.1563 367.1283,23.0469 Q365.9564,21.9219 365.9564,20 Q365.9564,18.0781 367.1283,16.9531 Q368.3001,15.8281 370.3001,15.8281 Q370.972,15.8281 371.5814,15.9844 Q372.2064,16.1406 372.7845,16.4375 L372.7845,18.0938 Q372.2064,17.7031 371.6439,17.5156 Q371.0814,17.3281 370.472,17.3281 Q369.3626,17.3281 368.722,18.0469 Q368.097,18.75 368.097,20 Q368.097,21.2344 368.722,21.9531 Q369.3626,22.6563 370.472,22.6563 Q371.0814,22.6563 371.6439,22.4844 Q372.2064,22.2969 372.7845,21.9063 L372.7845,23.5625 Z " fill="#000000"/><text fill="#AAAAAA" font-family="Verdana" font-size="11" lengthAdjust="spacing" textLength="54.2964" x="386.6595" y="23.8081">Biblioteca</text><line style="stroke:#1B1B1B;stroke-width:0.5;" x1="256.67" x2="545.9454" y1="33" y2="33"/><rect fill="#FFFFFF" fill-opacity="0.00000" height="6" style="stroke:#C82930;stroke-width:1;" width="6" x="263.67" y="41.4023"/><text fill="#AAAAAA" font-family="sans-serif" font-size="11" lengthAdjust="spacing" textLength="133.1226" x="272.67" y="47.2104">usuarios: List&lt;Usuario&gt;</text><rect fill="#FFFFFF" fill-opacity="0.00000" height="6" style="stroke:#C82930;stroke-width:1;" width="6" x="263.67" y="54.207"/><text fill="#AAAAAA" font-family="sans-serif" font-size="11" lengthAdjust="spacing" textLength="148.3228" x="272.67" y="60.0151">obras: List&lt;ObraLiteraria&gt;</text><rect fill="#FFFFFF" fill-opacity="0.00000" height="6" style="stroke:#C82930;stroke-width:1;" width="6" x="263.67" y="67.0117"/><text fill="#AAAAAA" font-family="sans-serif" font-size="11" lengthAdjust="spacing" textLength="183.3799" x="272.67" y="72.8198">emprestimos: List&lt;Emprestimo&gt;</text><line style="stroke:#1B1B1B;stroke-width:0.5;" x1="256.67" x2="545.9454" y1="79.4141" y2="79.4141"/><ellipse cx="266.67" cy="90.8164" fill="#84BE84" rx="3" ry="3" style="stroke:#038048;stroke-width:1;"/><text fill="#AAAAAA" font-family="sans-serif" font-size="11" lengthAdjust="spacing" textLength="120.5649" x="272.67" y="93.6245">carregarDados(): void</text><ellipse cx="266.67" cy="103.6211" fill="#84BE84" rx="3" ry="3" style="stroke:#038048;stroke-width:1;"/><text fill="#AAAAAA" font-family="sans-serif" font-size="11" lengthAdjust="spacing" textLength="107.019" x="272.67" y="106.4292">salvarDados(): void</text><ellipse cx="266.67" cy="116.4258" fill="#84BE84" rx="3" ry="3" style="stroke:#038048;stroke-width:1;"/><text fill="#AAAAAA" font-family="sans-serif" font-size="11" lengthAdjust="spacing" textLength="198.8379" x="272.67" y="119.2339">loginUsuario(String, String): Usuario</text><ellipse cx="266.67" cy="129.2305" fill="#84BE84" rx="3" ry="3" style="stroke:#038048;stroke-width:1;"/><text fill="#AAAAAA" font-family="sans-serif" font-size="11" lengthAdjust="spacing" textLength="268.2754" x="272.67" y="132.0386">realizarEmprestimo(ObraLiteraria, Usuario): void</text></g><!--reverse link Usuario to Aluno--><g id="link_Usuario_Aluno"><path codeLine="68" d="M166.7319,624.8747 C146.8319,645.4047 139.05,653.44 121.85,671.18 " fill="#FFFFFF" fill-opacity="0.00000" id="Usuario-backto-Aluno" style="stroke:#FFFFFF;stroke-width:1;"/><polygon fill="#FFFFFF" fill-opacity="0.00000" points="179.26,611.95,162.4237,620.6987,171.0402,629.0507,179.26,611.95" style="stroke:#FFFFFF;stroke-width:1;"/></g><!--reverse link Usuario to Professor--><g id="link_Usuario_Professor"><path codeLine="69" d="M267.31,629.95 C267.31,655.79 267.31,664.3 267.31,684.24 " fill="#FFFFFF" fill-opacity="0.00000" id="Usuario-backto-Professor" style="stroke:#FFFFFF;stroke-width:1;"/><polygon fill="#FFFFFF" fill-opacity="0.00000" points="267.31,611.95,261.31,629.95,273.31,629.95,267.31,611.95" style="stroke:#FFFFFF;stroke-width:1;"/></g><!--reverse link Usuario to Bibliotecario--><g id="link_Usuario_Bibliotecario"><path codeLine="70" d="M394.4115,623.2246 C419.9615,643.7546 432.02,653.44 454.1,671.18 " fill="#FFFFFF" fill-opacity="0.00000" id="Usuario-backto-Bibliotecario" style="stroke:#FFFFFF;stroke-width:1;"/><polygon fill="#FFFFFF" fill-opacity="0.00000" points="380.38,611.95,390.6533,627.9018,398.1697,618.5475,380.38,611.95" style="stroke:#FFFFFF;stroke-width:1;"/></g><!--reverse link Biblioteca to Usuario--><g id="link_Biblioteca_Usuario"><path codeLine="72" d="M306.9441,147.6235 C289.9741,164.9935 282.86,176.56 273.31,198.63 C241.93,271.15 243.52,361.83 251.15,428.2 " fill="#FFFFFF" fill-opacity="0.00000" id="Biblioteca-backto-Usuario" style="stroke:#FFFFFF;stroke-width:1;"/><polygon fill="#FFFFFF" points="315.33,139.04,308.2759,140.5365,306.9441,147.6235,313.9982,146.1271,315.33,139.04" style="stroke:#FFFFFF;stroke-width:1;"/><text fill="#BBBBBB" font-family="Verdana" font-size="11" lengthAdjust="spacing" textLength="6.9985" x="300.2057" y="156.74">1</text><text fill="#BBBBBB" font-family="Verdana" font-size="11" lengthAdjust="spacing" textLength="36.2925" x="212.2268" y="418.0312">Muitos</text></g><!--reverse link Biblioteca to ObraLiteraria--><g id="link_Biblioteca_ObraLiteraria"><path codeLine="73" d="M494.6213,147.5986 C511.7513,165.0286 519.18,176.64 529.31,198.63 C567.04,280.55 565.48,386.89 559.21,454.08 " fill="#FFFFFF" fill-opacity="0.00000" id="Biblioteca-backto-ObraLiteraria" style="stroke:#FFFFFF;stroke-width:1;"/><polygon fill="#FFFFFF" points="486.21,139.04,487.5628,146.1231,494.6213,147.5986,493.2685,140.5155,486.21,139.04" style="stroke:#FFFFFF;stroke-width:1;"/><text fill="#BBBBBB" font-family="Verdana" font-size="11" lengthAdjust="spacing" textLength="6.9985" x="488.7077" y="156.74">1</text><text fill="#BBBBBB" font-family="Verdana" font-size="11" lengthAdjust="spacing" textLength="36.2925" x="522.1193" y="443.5613">Muitos</text></g><!--reverse link Biblioteca to Emprestimo--><g id="link_Biblioteca_Emprestimo"><path codeLine="74" d="M401.31,151.04 C401.31,169.83 401.31,178.6 401.31,198.37 " fill="#FFFFFF" fill-opacity="0.00000" id="Biblioteca-backto-Emprestimo" style="stroke:#FFFFFF;stroke-width:1;"/><polygon fill="#FFFFFF" points="401.31,139.04,397.31,145.04,401.31,151.04,405.31,145.04,401.31,139.04" style="stroke:#FFFFFF;stroke-width:1;"/><text fill="#BBBBBB" font-family="Verdana" font-size="11" lengthAdjust="spacing" textLength="6.9985" x="395.0523" y="156.74">1</text><text fill="#BBBBBB" font-family="Verdana" font-size="11" lengthAdjust="spacing" textLength="36.2925" x="363.6083" y="187.9183">Muitos</text></g><!--link Emprestimo to Usuario--><g id="link_Emprestimo_Usuario"><path codeLine="76" d="M353.12,368.97 C342.09,388.26 330.32,408.86 319.14,428.41 " fill="#FFFFFF" fill-opacity="0.00000" id="Emprestimo-Usuario" style="stroke:#FFFFFF;stroke-width:1;"/><text fill="#BBBBBB" font-family="Verdana" font-size="11" lengthAdjust="spacing" textLength="6.9985" x="342.9222" y="386.7759">1</text><text fill="#BBBBBB" font-family="Verdana" font-size="11" lengthAdjust="spacing" textLength="6.9985" x="317.5332" y="417.9553">1</text></g><!--link Emprestimo to ObraLiteraria--><g id="link_Emprestimo_ObraLiteraria"><path codeLine="77" d="M454.89,368.97 C472.66,396.93 492.16,427.61 508.87,453.91 " fill="#FFFFFF" fill-opacity="0.00000" id="Emprestimo-ObraLiteraria" style="stroke:#FFFFFF;stroke-width:1;"/><text fill="#BBBBBB" font-family="Verdana" font-size="11" lengthAdjust="spacing" textLength="6.9985" x="453.12" y="386.7759">1</text><text fill="#BBBBBB" font-family="Verdana" font-size="11" lengthAdjust="spacing" textLength="6.9985" x="497.7898" y="443.8193">1</text></g><!--SRC=[XLJ9Rjim4BthArYVt3e-v6e41fAwXm8EchRk1uobiJCenN78eGvT_hsKB57KabGtpNkSVTuxUSOIbSMYiEZSkW3xC_naS7HY8HULQt1E_N0UBB7wdQdmhPNX4ZVgkrWovzQ49P0UsHoQPnZP3dJXrjr6aP7u_18I42hPVKFGz0iATXkr9oTtdoAsRTb7pIyU0sMZZimQmJJ0Ica-arbU0zwqWT_FaDZBCjWhfg8rLcZfH3dOXyOtyNBohWfv5P03zmajlnmjx4dGXe9W-g9pkgSoaFftBlN-DykkRRxNtlHDBY6adtizxc3khUE1RQNEA8yTlNOz1Z_MRn8WXdooV0g3Pnl35dW1Ar2YaPaekmITy_T0Hqqic0_sHL3ZYSruPmgiMFkSCSuSNByKJRn3-t9I59dSOfq6x6QynE76n0Q3YebHaIwXa7ZDeoJ12zkHxSM3aR0B1Ux8NTXGXJfrrEC75j1fJJaRvxM0_MnER4keyvuK1-ARIkpNw6WPN4oAwXSgLkIxssgFh3LpA7ypR48t113e_OIJunpq3WGJl6qny9F5Afma_8SM1p7bzOT-BrID3ZXqEyYEcpdiU4dtDM7cECEkrDNLmBJA1cuRKZEwtioixRYHdGYrJxP9Fpje46yx5RHNP2pi0bYBPx2xMkn6UkH0L_D8et5TCHEfIyU-2i9-tQFN5EkcuoUhrOdztP_r-Yf9GrEKZA5vSFbPbdHqSRjG7m9ZyUX9s2rYZcznXaDyYzdNbcN9GTIycdRRnvj71v7-0G00]--></g></svg>